<mxfile host="app.diagrams.net" modified="2022-10-30T00:56:21.929Z" agent="5.0 (Windows NT 10.0; Win64; x64) AppleWebKit/537.36 (KHTML, like Gecko) Chrome/106.0.0.0 Safari/537.36" etag="gSlR9oF0cgQjMUWy8dYf" version="20.5.1" type="github">
  <diagram id="Yqqyh4Bh645a52Wjra1R" name="Page-1">
    <mxGraphModel dx="2417" dy="717" grid="1" gridSize="10" guides="1" tooltips="1" connect="1" arrows="1" fold="1" page="1" pageScale="1" pageWidth="1169" pageHeight="827" math="0" shadow="0">
      <root>
        <mxCell id="0" />
        <mxCell id="1" parent="0" />
        <mxCell id="OAVEWSKpFmK9miLZO2rA-2" value="VPC" style="points=[[0,0],[0.25,0],[0.5,0],[0.75,0],[1,0],[1,0.25],[1,0.5],[1,0.75],[1,1],[0.75,1],[0.5,1],[0.25,1],[0,1],[0,0.75],[0,0.5],[0,0.25]];outlineConnect=0;html=1;whiteSpace=wrap;fontSize=20;fontStyle=0;container=1;pointerEvents=0;collapsible=0;recursiveResize=0;shape=mxgraph.aws4.group;grIcon=mxgraph.aws4.group_vpc;fillColor=#000000;verticalAlign=top;align=left;spacingLeft=30;dashed=0;strokeColor=#2C5675;rounded=0;fontColor=#FF0000;fontFamily=Lucida Console;" parent="1" vertex="1">
          <mxGeometry x="-50" y="20" width="1200" height="720" as="geometry" />
        </mxCell>
        <mxCell id="OAVEWSKpFmK9miLZO2rA-28" style="edgeStyle=orthogonalEdgeStyle;rounded=0;orthogonalLoop=1;jettySize=auto;html=1;exitX=0;exitY=0.5;exitDx=0;exitDy=0;fontFamily=Verdana;fontSize=18;fontColor=#FF33FF;" parent="OAVEWSKpFmK9miLZO2rA-2" source="OAVEWSKpFmK9miLZO2rA-3" target="OAVEWSKpFmK9miLZO2rA-2" edge="1">
          <mxGeometry relative="1" as="geometry" />
        </mxCell>
        <mxCell id="OAVEWSKpFmK9miLZO2rA-3" value="Availability Zone 1" style="fillColor=none;strokeColor=#147EBA;dashed=1;verticalAlign=top;fontStyle=0;fontColor=#FF33FF;fontSize=18;rounded=0;strokeWidth=2;" parent="OAVEWSKpFmK9miLZO2rA-2" vertex="1">
          <mxGeometry x="140" y="60" width="1020" height="230" as="geometry" />
        </mxCell>
        <mxCell id="OAVEWSKpFmK9miLZO2rA-4" value="Availability Zone 2" style="fillColor=none;strokeColor=#147EBA;dashed=1;verticalAlign=top;fontStyle=0;fontColor=#FF33FF;fontSize=18;rounded=0;strokeWidth=2;" parent="OAVEWSKpFmK9miLZO2rA-2" vertex="1">
          <mxGeometry x="140" y="380" width="1020" height="230" as="geometry" />
        </mxCell>
        <mxCell id="OAVEWSKpFmK9miLZO2rA-6" style="edgeStyle=orthogonalEdgeStyle;rounded=0;orthogonalLoop=1;jettySize=auto;html=1;exitX=0.5;exitY=0;exitDx=0;exitDy=0;" parent="OAVEWSKpFmK9miLZO2rA-2" source="OAVEWSKpFmK9miLZO2rA-4" target="OAVEWSKpFmK9miLZO2rA-4" edge="1">
          <mxGeometry relative="1" as="geometry" />
        </mxCell>
        <mxCell id="OAVEWSKpFmK9miLZO2rA-38" value="" style="edgeStyle=orthogonalEdgeStyle;orthogonalLoop=1;jettySize=auto;html=1;fontFamily=Lucida Console;fontSize=18;fontColor=#FF0000;endArrow=classic;endFill=0;strokeColor=#FFFFFF;entryX=0;entryY=0.5;entryDx=0;entryDy=0;entryPerimeter=0;strokeWidth=3;" parent="OAVEWSKpFmK9miLZO2rA-2" source="OAVEWSKpFmK9miLZO2rA-10" target="OAVEWSKpFmK9miLZO2rA-29" edge="1">
          <mxGeometry relative="1" as="geometry" />
        </mxCell>
        <mxCell id="OAVEWSKpFmK9miLZO2rA-10" value="&lt;font color=&quot;#ff0000&quot;&gt;&lt;span style=&quot;font-size: 18px;&quot;&gt;Internet&lt;br&gt;Gateway&lt;br&gt;&lt;/span&gt;&lt;/font&gt;" style="outlineConnect=0;fontColor=#232F3E;gradientColor=none;fillColor=#122AFF;strokeColor=none;dashed=0;verticalLabelPosition=bottom;verticalAlign=top;align=center;html=1;fontSize=12;fontStyle=0;aspect=fixed;pointerEvents=1;shape=mxgraph.aws4.internet_gateway;rounded=0;" parent="OAVEWSKpFmK9miLZO2rA-2" vertex="1">
          <mxGeometry y="302" width="69" height="69" as="geometry" />
        </mxCell>
        <mxCell id="OAVEWSKpFmK9miLZO2rA-12" value="Public subnet" style="points=[[0,0],[0.25,0],[0.5,0],[0.75,0],[1,0],[1,0.25],[1,0.5],[1,0.75],[1,1],[0.75,1],[0.5,1],[0.25,1],[0,1],[0,0.75],[0,0.5],[0,0.25]];outlineConnect=0;html=1;whiteSpace=wrap;fontSize=12;fontStyle=0;container=1;pointerEvents=0;collapsible=0;recursiveResize=0;shape=mxgraph.aws4.group;grIcon=mxgraph.aws4.group_security_group;grStroke=0;strokeColor=#23445d;fillColor=#bac8d3;verticalAlign=top;align=left;spacingLeft=30;dashed=0;fontFamily=Verdana;rounded=0;" parent="OAVEWSKpFmK9miLZO2rA-2" vertex="1">
          <mxGeometry x="230" y="100" width="250" height="160" as="geometry" />
        </mxCell>
        <mxCell id="OAVEWSKpFmK9miLZO2rA-20" value="Amazon EC2" style="points=[[0,0,0],[0.25,0,0],[0.5,0,0],[0.75,0,0],[1,0,0],[0,1,0],[0.25,1,0],[0.5,1,0],[0.75,1,0],[1,1,0],[0,0.25,0],[0,0.5,0],[0,0.75,0],[1,0.25,0],[1,0.5,0],[1,0.75,0]];outlineConnect=0;fontColor=#232F3E;gradientColor=#F78E04;gradientDirection=north;fillColor=#D05C17;strokeColor=#ffffff;dashed=0;verticalLabelPosition=bottom;verticalAlign=top;align=center;html=1;fontSize=12;fontStyle=0;aspect=fixed;shape=mxgraph.aws4.resourceIcon;resIcon=mxgraph.aws4.ec2;fontFamily=Verdana;rounded=0;" parent="OAVEWSKpFmK9miLZO2rA-12" vertex="1">
          <mxGeometry x="70" y="30.5" width="99" height="99" as="geometry" />
        </mxCell>
        <mxCell id="OAVEWSKpFmK9miLZO2rA-15" value="Public subnet" style="points=[[0,0],[0.25,0],[0.5,0],[0.75,0],[1,0],[1,0.25],[1,0.5],[1,0.75],[1,1],[0.75,1],[0.5,1],[0.25,1],[0,1],[0,0.75],[0,0.5],[0,0.25]];outlineConnect=0;html=1;whiteSpace=wrap;fontSize=12;fontStyle=0;container=1;pointerEvents=0;collapsible=0;recursiveResize=0;shape=mxgraph.aws4.group;grIcon=mxgraph.aws4.group_security_group;grStroke=0;strokeColor=#23445d;fillColor=#bac8d3;verticalAlign=top;align=left;spacingLeft=30;dashed=0;fontFamily=Verdana;rounded=0;" parent="OAVEWSKpFmK9miLZO2rA-2" vertex="1">
          <mxGeometry x="230" y="430" width="250" height="170" as="geometry" />
        </mxCell>
        <mxCell id="OAVEWSKpFmK9miLZO2rA-21" value="Amazon EC2" style="points=[[0,0,0],[0.25,0,0],[0.5,0,0],[0.75,0,0],[1,0,0],[0,1,0],[0.25,1,0],[0.5,1,0],[0.75,1,0],[1,1,0],[0,0.25,0],[0,0.5,0],[0,0.75,0],[1,0.25,0],[1,0.5,0],[1,0.75,0]];outlineConnect=0;fontColor=#232F3E;gradientColor=#F78E04;gradientDirection=north;fillColor=#D05C17;strokeColor=#ffffff;dashed=0;verticalLabelPosition=bottom;verticalAlign=top;align=center;html=1;fontSize=12;fontStyle=0;aspect=fixed;shape=mxgraph.aws4.resourceIcon;resIcon=mxgraph.aws4.ec2;fontFamily=Verdana;rounded=0;" parent="OAVEWSKpFmK9miLZO2rA-15" vertex="1">
          <mxGeometry x="80" y="40" width="99" height="99" as="geometry" />
        </mxCell>
        <mxCell id="OAVEWSKpFmK9miLZO2rA-16" value="Private subnet" style="points=[[0,0],[0.25,0],[0.5,0],[0.75,0],[1,0],[1,0.25],[1,0.5],[1,0.75],[1,1],[0.75,1],[0.5,1],[0.25,1],[0,1],[0,0.75],[0,0.5],[0,0.25]];outlineConnect=0;html=1;whiteSpace=wrap;fontSize=12;fontStyle=0;container=1;pointerEvents=0;collapsible=0;recursiveResize=0;shape=mxgraph.aws4.group;grIcon=mxgraph.aws4.group_security_group;grStroke=0;strokeColor=#23445d;fillColor=#bac8d3;verticalAlign=top;align=left;spacingLeft=30;dashed=0;fontFamily=Verdana;rounded=0;" parent="OAVEWSKpFmK9miLZO2rA-2" vertex="1">
          <mxGeometry x="550" y="100" width="250" height="160" as="geometry" />
        </mxCell>
        <mxCell id="OAVEWSKpFmK9miLZO2rA-23" value="Amazon EC2" style="points=[[0,0,0],[0.25,0,0],[0.5,0,0],[0.75,0,0],[1,0,0],[0,1,0],[0.25,1,0],[0.5,1,0],[0.75,1,0],[1,1,0],[0,0.25,0],[0,0.5,0],[0,0.75,0],[1,0.25,0],[1,0.5,0],[1,0.75,0]];outlineConnect=0;fontColor=#232F3E;gradientColor=#F78E04;gradientDirection=north;fillColor=#D05C17;strokeColor=#ffffff;dashed=0;verticalLabelPosition=bottom;verticalAlign=top;align=center;html=1;fontSize=12;fontStyle=0;aspect=fixed;shape=mxgraph.aws4.resourceIcon;resIcon=mxgraph.aws4.ec2;fontFamily=Verdana;rounded=0;" parent="OAVEWSKpFmK9miLZO2rA-16" vertex="1">
          <mxGeometry x="80.5" y="30.5" width="99" height="99" as="geometry" />
        </mxCell>
        <mxCell id="OAVEWSKpFmK9miLZO2rA-17" value="Private subnet" style="points=[[0,0],[0.25,0],[0.5,0],[0.75,0],[1,0],[1,0.25],[1,0.5],[1,0.75],[1,1],[0.75,1],[0.5,1],[0.25,1],[0,1],[0,0.75],[0,0.5],[0,0.25]];outlineConnect=0;html=1;whiteSpace=wrap;fontSize=12;fontStyle=0;container=1;pointerEvents=0;collapsible=0;recursiveResize=0;shape=mxgraph.aws4.group;grIcon=mxgraph.aws4.group_security_group;grStroke=0;strokeColor=#23445d;fillColor=#bac8d3;verticalAlign=top;align=left;spacingLeft=30;dashed=0;fontFamily=Verdana;rounded=0;" parent="OAVEWSKpFmK9miLZO2rA-2" vertex="1">
          <mxGeometry x="870" y="100" width="250" height="160" as="geometry" />
        </mxCell>
        <mxCell id="OAVEWSKpFmK9miLZO2rA-24" value="Amazon Aurora Primary DB" style="points=[[0,0,0],[0.25,0,0],[0.5,0,0],[0.75,0,0],[1,0,0],[0,1,0],[0.25,1,0],[0.5,1,0],[0.75,1,0],[1,1,0],[0,0.25,0],[0,0.5,0],[0,0.75,0],[1,0.25,0],[1,0.5,0],[1,0.75,0]];outlineConnect=0;fontColor=#232F3E;gradientColor=#4D72F3;gradientDirection=north;fillColor=#3334B9;strokeColor=#ffffff;dashed=0;verticalLabelPosition=bottom;verticalAlign=top;align=center;html=1;fontSize=12;fontStyle=0;aspect=fixed;shape=mxgraph.aws4.resourceIcon;resIcon=mxgraph.aws4.aurora;fontFamily=Verdana;rounded=0;" parent="OAVEWSKpFmK9miLZO2rA-17" vertex="1">
          <mxGeometry x="75.5" y="30.5" width="99.5" height="99.5" as="geometry" />
        </mxCell>
        <mxCell id="OAVEWSKpFmK9miLZO2rA-18" value="Private subnet" style="points=[[0,0],[0.25,0],[0.5,0],[0.75,0],[1,0],[1,0.25],[1,0.5],[1,0.75],[1,1],[0.75,1],[0.5,1],[0.25,1],[0,1],[0,0.75],[0,0.5],[0,0.25]];outlineConnect=0;html=1;whiteSpace=wrap;fontSize=12;fontStyle=0;container=1;pointerEvents=0;collapsible=0;recursiveResize=0;shape=mxgraph.aws4.group;grIcon=mxgraph.aws4.group_security_group;grStroke=0;strokeColor=#23445d;fillColor=#bac8d3;verticalAlign=top;align=left;spacingLeft=30;dashed=0;fontFamily=Verdana;rounded=0;" parent="OAVEWSKpFmK9miLZO2rA-2" vertex="1">
          <mxGeometry x="555" y="430" width="250" height="170" as="geometry" />
        </mxCell>
        <mxCell id="OAVEWSKpFmK9miLZO2rA-19" value="Private subnet" style="points=[[0,0],[0.25,0],[0.5,0],[0.75,0],[1,0],[1,0.25],[1,0.5],[1,0.75],[1,1],[0.75,1],[0.5,1],[0.25,1],[0,1],[0,0.75],[0,0.5],[0,0.25]];outlineConnect=0;html=1;whiteSpace=wrap;fontSize=12;fontStyle=0;container=1;pointerEvents=0;collapsible=0;recursiveResize=0;shape=mxgraph.aws4.group;grIcon=mxgraph.aws4.group_security_group;grStroke=0;strokeColor=#23445d;fillColor=#bac8d3;verticalAlign=top;align=left;spacingLeft=30;dashed=0;fontFamily=Verdana;rounded=0;" parent="OAVEWSKpFmK9miLZO2rA-2" vertex="1">
          <mxGeometry x="880" y="430" width="250" height="170" as="geometry" />
        </mxCell>
        <mxCell id="OAVEWSKpFmK9miLZO2rA-25" value="Aurora Read Replica" style="points=[[0,0,0],[0.25,0,0],[0.5,0,0],[0.75,0,0],[1,0,0],[0,1,0],[0.25,1,0],[0.5,1,0],[0.75,1,0],[1,1,0],[0,0.25,0],[0,0.5,0],[0,0.75,0],[1,0.25,0],[1,0.5,0],[1,0.75,0]];outlineConnect=0;fontColor=#232F3E;gradientColor=#4D72F3;gradientDirection=north;fillColor=#3334B9;strokeColor=#ffffff;dashed=0;verticalLabelPosition=bottom;verticalAlign=top;align=center;html=1;fontSize=12;fontStyle=0;aspect=fixed;shape=mxgraph.aws4.resourceIcon;resIcon=mxgraph.aws4.aurora;fontFamily=Verdana;rounded=0;" parent="OAVEWSKpFmK9miLZO2rA-19" vertex="1">
          <mxGeometry x="75.25" y="40" width="99.5" height="99.5" as="geometry" />
        </mxCell>
        <mxCell id="OAVEWSKpFmK9miLZO2rA-22" value="Amazon EC2" style="points=[[0,0,0],[0.25,0,0],[0.5,0,0],[0.75,0,0],[1,0,0],[0,1,0],[0.25,1,0],[0.5,1,0],[0.75,1,0],[1,1,0],[0,0.25,0],[0,0.5,0],[0,0.75,0],[1,0.25,0],[1,0.5,0],[1,0.75,0]];outlineConnect=0;fontColor=#232F3E;gradientColor=#F78E04;gradientDirection=north;fillColor=#D05C17;strokeColor=#ffffff;dashed=0;verticalLabelPosition=bottom;verticalAlign=top;align=center;html=1;fontSize=12;fontStyle=0;aspect=fixed;shape=mxgraph.aws4.resourceIcon;resIcon=mxgraph.aws4.ec2;fontFamily=Verdana;rounded=0;" parent="OAVEWSKpFmK9miLZO2rA-2" vertex="1">
          <mxGeometry x="625.5" y="470" width="99" height="99" as="geometry" />
        </mxCell>
        <mxCell id="OAVEWSKpFmK9miLZO2rA-27" value="&lt;font color=&quot;#ffffff&quot;&gt;Elastic Load Balancing (ELB)&lt;/font&gt;" style="points=[[0,0,0],[0.25,0,0],[0.5,0,0],[0.75,0,0],[1,0,0],[0,1,0],[0.25,1,0],[0.5,1,0],[0.75,1,0],[1,1,0],[0,0.25,0],[0,0.5,0],[0,0.75,0],[1,0.25,0],[1,0.5,0],[1,0.75,0]];outlineConnect=0;fontColor=#232F3E;gradientColor=#945DF2;gradientDirection=north;fillColor=#5A30B5;strokeColor=#ffffff;dashed=0;verticalLabelPosition=bottom;verticalAlign=top;align=center;html=1;fontSize=12;fontStyle=0;aspect=fixed;shape=mxgraph.aws4.resourceIcon;resIcon=mxgraph.aws4.elastic_load_balancing;fontFamily=Verdana;rounded=0;" parent="OAVEWSKpFmK9miLZO2rA-2" vertex="1">
          <mxGeometry x="454" y="297.5" width="78" height="78" as="geometry" />
        </mxCell>
        <mxCell id="OAVEWSKpFmK9miLZO2rA-29" value="&lt;font color=&quot;#ffffff&quot;&gt;Elastic Load Balancing (ELB)&lt;/font&gt;" style="points=[[0,0,0],[0.25,0,0],[0.5,0,0],[0.75,0,0],[1,0,0],[0,1,0],[0.25,1,0],[0.5,1,0],[0.75,1,0],[1,1,0],[0,0.25,0],[0,0.5,0],[0,0.75,0],[1,0.25,0],[1,0.5,0],[1,0.75,0]];outlineConnect=0;fontColor=#232F3E;gradientColor=#945DF2;gradientDirection=north;fillColor=#5A30B5;strokeColor=#ffffff;dashed=0;verticalLabelPosition=bottom;verticalAlign=top;align=center;html=1;fontSize=12;fontStyle=0;aspect=fixed;shape=mxgraph.aws4.resourceIcon;resIcon=mxgraph.aws4.elastic_load_balancing;fontFamily=Verdana;rounded=0;" parent="OAVEWSKpFmK9miLZO2rA-2" vertex="1">
          <mxGeometry x="170" y="297.5" width="78" height="78" as="geometry" />
        </mxCell>
        <mxCell id="OAVEWSKpFmK9miLZO2rA-51" value="" style="edgeStyle=orthogonalEdgeStyle;html=1;endArrow=block;elbow=vertical;startArrow=block;startFill=1;endFill=1;strokeColor=#FFFFFF;rounded=0;strokeWidth=3;fontFamily=Lucida Console;fontSize=18;fontColor=#FF0000;" parent="OAVEWSKpFmK9miLZO2rA-2" edge="1">
          <mxGeometry width="100" relative="1" as="geometry">
            <mxPoint x="360" y="270" as="sourcePoint" />
            <mxPoint x="360" y="410" as="targetPoint" />
            <Array as="points">
              <mxPoint x="360" y="360" />
              <mxPoint x="360" y="360" />
            </Array>
          </mxGeometry>
        </mxCell>
        <mxCell id="OAVEWSKpFmK9miLZO2rA-55" value="" style="edgeStyle=orthogonalEdgeStyle;html=1;endArrow=block;elbow=vertical;startArrow=none;endFill=1;strokeColor=#FFFFFF;rounded=0;strokeWidth=3;fontFamily=Lucida Console;fontSize=18;fontColor=#FF0000;" parent="OAVEWSKpFmK9miLZO2rA-2" source="OAVEWSKpFmK9miLZO2rA-20" edge="1">
          <mxGeometry width="100" relative="1" as="geometry">
            <mxPoint x="560" y="330" as="sourcePoint" />
            <mxPoint x="499" y="280" as="targetPoint" />
          </mxGeometry>
        </mxCell>
        <mxCell id="OAVEWSKpFmK9miLZO2rA-60" value="" style="edgeStyle=segmentEdgeStyle;endArrow=classic;html=1;strokeColor=#FFFFFF;strokeWidth=3;fontFamily=Lucida Console;fontSize=18;fontColor=#FF0000;exitX=1;exitY=0.5;exitDx=0;exitDy=0;exitPerimeter=0;" parent="OAVEWSKpFmK9miLZO2rA-2" source="OAVEWSKpFmK9miLZO2rA-21" edge="1">
          <mxGeometry width="50" height="50" relative="1" as="geometry">
            <mxPoint x="580" y="350" as="sourcePoint" />
            <mxPoint x="499" y="400" as="targetPoint" />
          </mxGeometry>
        </mxCell>
        <mxCell id="OAVEWSKpFmK9miLZO2rA-61" value="" style="endArrow=classic;startArrow=classic;html=1;strokeColor=#FFFFFF;strokeWidth=3;fontFamily=Lucida Console;fontSize=18;fontColor=#FF0000;" parent="OAVEWSKpFmK9miLZO2rA-2" edge="1">
          <mxGeometry width="50" height="50" relative="1" as="geometry">
            <mxPoint x="680" y="420" as="sourcePoint" />
            <mxPoint x="680" y="270" as="targetPoint" />
          </mxGeometry>
        </mxCell>
        <mxCell id="OAVEWSKpFmK9miLZO2rA-63" value="" style="endArrow=classic;html=1;strokeColor=#FFFFFF;strokeWidth=3;fontFamily=Lucida Console;fontSize=18;fontColor=#FF0000;entryX=0.775;entryY=0.696;entryDx=0;entryDy=0;entryPerimeter=0;exitX=1;exitY=0.75;exitDx=0;exitDy=0;exitPerimeter=0;" parent="OAVEWSKpFmK9miLZO2rA-2" source="OAVEWSKpFmK9miLZO2rA-22" target="OAVEWSKpFmK9miLZO2rA-3" edge="1">
          <mxGeometry width="50" height="50" relative="1" as="geometry">
            <mxPoint x="580" y="350" as="sourcePoint" />
            <mxPoint x="630" y="300" as="targetPoint" />
          </mxGeometry>
        </mxCell>
        <mxCell id="OAVEWSKpFmK9miLZO2rA-64" value="" style="endArrow=classic;html=1;strokeColor=#FFFFFF;strokeWidth=3;fontFamily=Lucida Console;fontSize=18;fontColor=#FF0000;" parent="OAVEWSKpFmK9miLZO2rA-2" source="OAVEWSKpFmK9miLZO2rA-23" target="OAVEWSKpFmK9miLZO2rA-24" edge="1">
          <mxGeometry width="50" height="50" relative="1" as="geometry">
            <mxPoint x="580" y="350" as="sourcePoint" />
            <mxPoint x="630" y="300" as="targetPoint" />
          </mxGeometry>
        </mxCell>
        <mxCell id="OAVEWSKpFmK9miLZO2rA-70" value="Auto Scaling group" style="points=[[0,0],[0.25,0],[0.5,0],[0.75,0],[1,0],[1,0.25],[1,0.5],[1,0.75],[1,1],[0.75,1],[0.5,1],[0.25,1],[0,1],[0,0.75],[0,0.5],[0,0.25]];outlineConnect=0;gradientColor=none;html=1;whiteSpace=wrap;fontSize=12;fontStyle=0;container=1;pointerEvents=0;collapsible=0;recursiveResize=0;shape=mxgraph.aws4.groupCenter;grIcon=mxgraph.aws4.group_auto_scaling_group;grStroke=1;strokeColor=#D86613;fillColor=none;verticalAlign=top;align=center;fontColor=#D86613;dashed=1;spacingTop=25;strokeWidth=2;fontFamily=Lucida Console;" parent="OAVEWSKpFmK9miLZO2rA-2" vertex="1">
          <mxGeometry x="260" y="124" width="184" height="466" as="geometry" />
        </mxCell>
        <mxCell id="OAVEWSKpFmK9miLZO2rA-72" value="Auto Scaling group" style="points=[[0,0],[0.25,0],[0.5,0],[0.75,0],[1,0],[1,0.25],[1,0.5],[1,0.75],[1,1],[0.75,1],[0.5,1],[0.25,1],[0,1],[0,0.75],[0,0.5],[0,0.25]];outlineConnect=0;gradientColor=none;html=1;whiteSpace=wrap;fontSize=12;fontStyle=0;container=1;pointerEvents=0;collapsible=0;recursiveResize=0;shape=mxgraph.aws4.groupCenter;grIcon=mxgraph.aws4.group_auto_scaling_group;grStroke=1;strokeColor=#D86613;fillColor=none;verticalAlign=top;align=center;fontColor=#D86613;dashed=1;spacingTop=25;strokeWidth=2;fontFamily=Lucida Console;" parent="OAVEWSKpFmK9miLZO2rA-2" vertex="1">
          <mxGeometry x="585" y="126" width="184" height="466" as="geometry" />
        </mxCell>
        <mxCell id="OAVEWSKpFmK9miLZO2rA-59" value="" style="endArrow=none;html=1;strokeColor=#FFFFFF;strokeWidth=3;fontFamily=Lucida Console;fontSize=18;fontColor=#FF0000;exitX=1;exitY=0.5;exitDx=0;exitDy=0;exitPerimeter=0;" parent="1" source="OAVEWSKpFmK9miLZO2rA-29" edge="1">
          <mxGeometry width="50" height="50" relative="1" as="geometry">
            <mxPoint x="530" y="370" as="sourcePoint" />
            <mxPoint x="310" y="357" as="targetPoint" />
          </mxGeometry>
        </mxCell>
        <mxCell id="OAVEWSKpFmK9miLZO2rA-62" value="" style="endArrow=none;html=1;strokeColor=#FFFFFF;strokeWidth=3;fontFamily=Lucida Console;fontSize=18;fontColor=#FF0000;exitX=1;exitY=0.5;exitDx=0;exitDy=0;exitPerimeter=0;" parent="1" source="OAVEWSKpFmK9miLZO2rA-27" edge="1">
          <mxGeometry width="50" height="50" relative="1" as="geometry">
            <mxPoint x="530" y="370" as="sourcePoint" />
            <mxPoint x="630" y="357" as="targetPoint" />
          </mxGeometry>
        </mxCell>
        <mxCell id="OAVEWSKpFmK9miLZO2rA-76" value="Web Tier" style="rounded=1;whiteSpace=wrap;html=1;strokeWidth=2;fontFamily=Lucida Console;fontSize=18;fontColor=#FF0000;fillColor=#FFF2CC;" parent="1" vertex="1">
          <mxGeometry x="251" y="30" width="120" height="40" as="geometry" />
        </mxCell>
        <mxCell id="OAVEWSKpFmK9miLZO2rA-77" value="App Tier" style="rounded=1;whiteSpace=wrap;html=1;strokeWidth=2;fontFamily=Lucida Console;fontSize=18;fontColor=#FF0000;fillColor=#FFF2CC;" parent="1" vertex="1">
          <mxGeometry x="571" y="30" width="120" height="40" as="geometry" />
        </mxCell>
        <mxCell id="OAVEWSKpFmK9miLZO2rA-78" value="Database Tier" style="rounded=1;whiteSpace=wrap;html=1;strokeWidth=2;fontFamily=Lucida Console;fontSize=18;fontColor=#FF0000;fillColor=#FFF2CC;" parent="1" vertex="1">
          <mxGeometry x="866" y="30" width="150" height="40" as="geometry" />
        </mxCell>
      </root>
    </mxGraphModel>
  </diagram>
</mxfile>
